<svg width="132" height="132" viewBox="0 0 132 132" fill="none" xmlns="http://www.w3.org/2000/svg">
<path d="M59.5082 21.1603L62.8795 40.2217C65.8948 57.2702 80.2427 70.6323 98.5489 73.4405L119.016 76.5802L98.5489 79.7198C80.2427 82.528 65.8948 95.8901 62.8795 112.939L59.5082 132L56.1369 112.939C53.1216 95.8901 38.7737 82.528 20.4675 79.7198L0 76.5802L20.4676 73.4405C38.7737 70.6323 53.1216 57.2702 56.1369 40.2216L59.5082 21.1603Z" fill="white"/>
<path d="M104.951 0L106.483 8.66427C107.854 16.4136 114.376 22.4873 122.697 23.7637L132 25.1908L122.697 26.618C114.376 27.8944 107.854 33.9681 106.483 41.7174L104.951 50.3817L103.418 41.7174C102.048 33.9681 95.5261 27.8944 87.205 26.618L77.9016 25.1908L87.2051 23.7637C95.5261 22.4873 102.048 16.4136 103.418 8.66423L104.951 0Z" fill="white"/>
</svg>
