<?xml version="1.0" encoding="utf-8"?>
<!-- Generator: Adobe Illustrator 15.1.0, SVG Export Plug-In . SVG Version: 6.00 Build 0)  -->
<!DOCTYPE svg PUBLIC "-//W3C//DTD SVG 1.1//EN" "http://www.w3.org/Graphics/SVG/1.1/DTD/svg11.dtd">
<svg version="1.1" id="Word" xmlns="http://www.w3.org/2000/svg" xmlns:xlink="http://www.w3.org/1999/xlink" x="0px" y="0px"
	 width="800px" height="300px" viewBox="0 0 800 300" enable-background="new 0 0 800 300" xml:space="preserve">
<g>
	<path fill="#FFFFFF" d="M82.164,229.35c0-1.852,1.156-4.635,3.478-8.346c2.317-3.709,4.404-5.564,6.26-5.564
		c0.183,0,1.67,0.881,4.452,2.643c2.781,1.766,6.768,3.525,11.963,5.285c5.189,1.766,11.45,2.645,18.779,2.645
		c7.324,0,13.354-2.088,18.083-6.26c4.729-4.174,7.095-9.83,7.095-16.971c0-7.139-2.087-12.703-6.26-16.693
		c-4.174-3.986-12.477-7.742-24.9-11.268c-12.428-3.521-21.422-8.02-26.985-13.494c-5.564-5.469-8.347-13.771-8.347-24.898
		s4.265-20.448,12.797-27.96c8.529-7.512,19.658-11.268,33.386-11.268c9.459,0,17.896,1.208,25.317,3.617
		c7.416,2.412,11.128,5.103,11.128,8.067c0,2.413-1.069,5.521-3.199,9.32c-2.135,3.804-4.034,5.703-5.704,5.703
		c-0.187,0-1.391-0.556-3.615-1.669c-6.308-3.339-13.402-5.008-21.284-5.008c-7.885,0-14.006,1.625-18.361,4.869
		c-4.36,3.246-6.538,7.468-6.538,12.658c0,5.194,1.622,9.275,4.868,12.241c3.243,2.969,8.765,5.66,16.554,8.066
		c17.432,5.383,29.256,11.27,35.473,17.668c6.212,6.398,9.319,16.045,9.319,28.934c0,12.893-4.59,23.508-13.771,31.855
		c-9.18,8.346-20.17,12.518-32.968,12.518s-23.835-1.898-33.106-5.703C86.799,236.539,82.164,232.875,82.164,229.35z"/>
	<path fill="#FFFFFF" d="M203.185,207.648V41.28c0-4.078,3.708-6.121,11.128-6.121h1.113c7.416,0,11.128,2.043,11.128,6.121v164.144
		c0,13.727,5.009,20.588,15.023,20.588c3.151,0,5.843-0.232,8.068-0.697c2.226-0.459,3.521-0.695,3.896-0.695
		c1.669,0,3.06,1.717,4.173,5.148c1.112,3.434,1.669,6.076,1.669,7.928c0,5.564-6.772,8.346-20.31,8.346
		c-9.276,0-17.575-2.824-24.899-8.484C206.845,231.9,203.185,221.934,203.185,207.648z"/>
	<path fill="#FFFFFF" d="M281.361,239.809V102.433c0-4.076,3.708-6.119,11.128-6.119h1.112c7.416,0,11.129,2.043,11.129,6.119
		v137.376c0,4.082-3.713,6.119-11.129,6.119h-1.112C285.069,245.928,281.361,243.891,281.361,239.809z"/>
	<path fill="#FFFFFF" d="M435.487,225.176c-13.354,13.91-28.193,20.865-44.513,20.865c-16.323,0-29.351-6.859-39.089-20.588
		c-9.736-13.723-14.605-31.34-14.605-52.859v-2.502c0-22.813,5.19-40.663,15.579-53.556c10.386-12.89,23.37-19.336,38.949-19.336
		s29.491,4.729,41.731,14.188V41.28c0-4.078,3.709-6.121,11.129-6.121h1.113c7.416,0,11.129,2.043,11.129,6.121v161.917
		c0,11.129,0.459,19.197,1.391,24.205c1.295,6.863,1.947,10.48,1.947,10.85c0,2.227-1.766,3.852-5.287,4.869
		c-3.525,1.021-6.26,1.529-8.207,1.529s-3.295-0.188-4.033-0.557c-0.744-0.369-1.439-1.016-2.088-1.947
		c-0.65-0.926-1.16-1.809-1.529-2.643c-0.373-0.834-0.742-1.992-1.113-3.477c-0.373-1.484-0.695-2.645-0.973-3.479
		c-0.279-0.836-0.557-2.131-0.834-3.895C435.905,226.893,435.671,225.732,435.487,225.176z M361.763,169.533
		c0,37.469,12.055,56.199,36.167,56.199c12.054,0,23.927-6.398,35.61-19.195v-76.23c-10.016-8.346-21.238-12.519-33.662-12.519
		h-1.67c-11.872,0.187-20.914,4.729-27.126,13.632C364.866,140.322,361.763,153.027,361.763,169.533z"/>
	<path fill="#FFFFFF" d="M501.542,227.957c-11.129-12.053-16.693-30.463-16.693-55.223c0-24.762,5.469-43.54,16.416-56.338
		c10.939-12.798,26.52-19.196,46.738-19.196c39.318,0,58.98,24.204,58.98,72.612c0,1.67-1.113,3.99-3.338,6.955
		c-2.227,2.969-4.174,4.451-5.844,4.451h-87.914c1.113,15.398,5.1,26.709,11.963,33.941c6.859,7.234,17.154,10.852,30.881,10.852
		c12.611,0,24.205-2.967,34.777-8.904c3.52-1.852,5.469-2.781,5.842-2.781c1.852,0,3.938,1.855,6.26,5.564
		c2.318,3.713,3.477,6.494,3.477,8.346c0,3.713-5.055,7.607-15.16,11.686c-10.113,4.082-21.75,6.119-34.916,6.119
		C529.823,246.041,512.669,240.016,501.542,227.957z M582.222,161.188c0-29.302-11.127-43.956-33.385-43.956
		c-23.926,0-36.91,14.654-38.949,43.956H582.222z"/>
	<path fill="#FFFFFF" d="M622.28,229.35c0-1.852,1.156-4.635,3.477-8.346c2.318-3.709,4.404-5.564,6.26-5.564
		c0.184,0,1.67,0.881,4.453,2.643c2.781,1.766,6.768,3.525,11.963,5.285c5.189,1.766,11.449,2.645,18.777,2.645
		c7.326,0,13.355-2.088,18.084-6.26c4.73-4.174,7.096-9.83,7.096-16.971c0-7.139-2.088-12.703-6.26-16.693
		c-4.174-3.986-12.477-7.742-24.9-11.268c-12.428-3.521-21.422-8.02-26.986-13.494c-5.564-5.469-8.346-13.771-8.346-24.898
		s4.264-20.448,12.797-27.96c8.529-7.512,19.658-11.268,33.385-11.268c9.459,0,17.896,1.208,25.318,3.617
		c7.416,2.412,11.127,5.103,11.127,8.067c0,2.413-1.068,5.521-3.199,9.32c-2.135,3.804-4.033,5.703-5.703,5.703
		c-0.188,0-1.391-0.556-3.615-1.669c-6.309-3.339-13.404-5.008-21.285-5.008c-7.885,0-14.004,1.625-18.361,4.869
		c-4.359,3.246-6.537,7.468-6.537,12.658c0,5.194,1.621,9.275,4.869,12.241c3.242,2.969,8.762,5.66,16.553,8.066
		c17.432,5.383,29.256,11.27,35.473,17.668c6.211,6.398,9.318,16.045,9.318,28.934c0,12.893-4.59,23.508-13.771,31.855
		c-9.18,8.346-20.17,12.518-32.967,12.518c-12.799,0-23.834-1.898-33.107-5.703C626.913,236.539,622.28,232.875,622.28,229.35z"/>
</g>
<circle fill="#FFFFFF" cx="293.046" cy="48.246" r="15.805"/>
</svg>
